# xmcd
#
# Track frame offsets:
#	150
#	20718
#	33565
#	45002
#	58549
#	76154
#	94407
#	107820
#	126331
#	144086
#
# Disc length: 2118 seconds
#
# Revision: 1
# Processed by: cddbd v1.5.2PL0 Copyright (c) Steve Scherf et al.
# Submitted via: audiograbber 1.83.01
#
DISCID=7b08440a
DTITLE=Maggie Rose - Cut To Impress
DYEAR=2013
DGENRE=Country
TTITLE0=Preacher's Daughter
TTITLE1=Mostly Bad
TTITLE2=Fall Madly In Love With You
TTITLE3=I Know Better Now
TTITLE4=Put Yourself In My Blues
TTITLE5=Better
TTITLE6=I Ain't Your Mama
TTITLE7=Looking Back Now
TTITLE8=Hollywood
TTITLE9=Goodbye Monday
EXTD=
EXTT0=
EXTT1=
EXTT2=
EXTT3=
EXTT4=
EXTT5=
EXTT6=
EXTT7=
EXTT8=
EXTT9=
PLAYORDER=
